<svg width="100" height="100" viewBox="0 0 100 100">
  <g fill="#ededed">
    <path xmlns="http://www.w3.org/2000/svg"
      d="M21.14,48.425c-0.205,0-0.407-0.053-0.588-0.158L0.588,36.72C0.225,36.511,0,36.123,0,35.705c0-0.42,0.223-0.808,0.586-1.02  l29.562-17.192c0.365-0.213,0.818-0.211,1.188,0.005l9.786,5.755c0.358,0.209,0.576,0.595,0.579,1.011  c0,0.416-0.218,0.799-0.574,1.013L23.445,35.806l7.982,4.71c0.358,0.211,0.579,0.597,0.579,1.013c0,0.416-0.22,0.802-0.579,1.013  l-9.691,5.72C21.553,48.37,21.346,48.425,21.14,48.425z M3.521,35.701l17.612,10.187l7.385-4.359l-7.976-4.705  c-0.358-0.211-0.579-0.595-0.579-1.011s0.218-0.799,0.574-1.013l17.679-10.527l-7.479-4.4L3.521,35.701z">
    </path>
    <path xmlns="http://www.w3.org/2000/svg"
      d="M20.848,94.387c-0.209,0-0.418-0.055-0.604-0.165l-9.746-5.824c-0.354-0.213-0.572-0.597-0.572-1.01V53.546l-9.329-5.272  C0.228,48.065,0,47.674,0,47.25V35.703c0-0.65,0.526-1.176,1.176-1.176s1.176,0.526,1.176,1.176v10.86l9.328,5.272  c0.37,0.209,0.597,0.6,0.597,1.024v33.862l7.395,4.418V47.25c0-0.65,0.526-1.176,1.176-1.176s1.176,0.526,1.176,1.176v45.962  c0,0.423-0.227,0.813-0.595,1.022C21.248,94.337,21.048,94.387,20.848,94.387z">
    </path>
    <path xmlns="http://www.w3.org/2000/svg"
      d="M30.831,54.144c-0.204,0-0.406-0.053-0.588-0.159c-0.365-0.209-0.588-0.597-0.588-1.017V41.529  c0-0.42,0.225-0.808,0.59-1.02l28.24-16.248l-8.157-4.733c-0.36-0.209-0.583-0.595-0.585-1.01c-0.003-0.418,0.216-0.804,0.574-1.018  l9.916-5.899c0.37-0.218,0.827-0.221,1.196-0.002l19.649,11.544c0.355,0.209,0.576,0.588,0.581,1.001  c0.004,0.414-0.209,0.797-0.561,1.013l-7.82,4.8l18.152,10.555c0.365,0.211,0.588,0.602,0.585,1.022  c-0.002,0.42-0.228,0.808-0.592,1.017L81.39,48.271c-0.365,0.209-0.811,0.205-1.171-0.004L60.841,37.06L31.417,53.988  C31.235,54.091,31.033,54.144,30.831,54.144z M32.006,42.209v8.726l28.252-16.252c0.365-0.207,0.812-0.207,1.173,0.002  l19.381,11.209l7.673-4.375L70.397,31.002c-0.358-0.209-0.581-0.59-0.585-1.003c-0.005-0.414,0.209-0.799,0.56-1.015l7.829-4.804  L60.839,13.978l-7.6,4.521l8.185,4.75c0.363,0.211,0.586,0.599,0.586,1.02s-0.225,0.808-0.59,1.017L32.006,42.209z">
    </path>
    <path xmlns="http://www.w3.org/2000/svg"
      d="M80.807,59.644c-0.197,0-0.397-0.051-0.576-0.151L60.267,48.274c-0.369-0.207-0.6-0.6-0.6-1.024V35.703  c0-0.65,0.526-1.176,1.176-1.176c0.65,0,1.176,0.526,1.176,1.176v10.858l17.612,9.898V47.25c0-0.65,0.526-1.176,1.176-1.176  c0.65,0,1.176,0.526,1.176,1.176v11.219c0,0.418-0.221,0.804-0.581,1.015C81.218,59.591,81.011,59.644,80.807,59.644z">
    </path>
    <path xmlns="http://www.w3.org/2000/svg"
      d="M70.827,100c-0.202,0-0.404-0.053-0.586-0.156L50.115,88.297c-0.365-0.209-0.591-0.6-0.591-1.02V76.626l-8.998-5.201  l-9.101,5.323c-0.365,0.216-0.815,0.211-1.18,0.004c-0.365-0.209-0.59-0.599-0.59-1.02V64.459c0-0.42,0.225-0.809,0.588-1.018  c0.368-0.211,0.818-0.206,1.176,0l9.639,5.574c0.039,0.019,0.076,0.039,0.112,0.064l10.118,5.851  c0.365,0.209,0.588,0.598,0.588,1.018v10.646l18.958,10.877l8.825-4.949V82.249l-9.406-5.273c-0.37-0.209-0.6-0.597-0.602-1.02  c-0.002-0.425,0.223-0.815,0.59-1.026L89.665,63.78V41.529c0-0.65,0.526-1.176,1.176-1.176c0.65,0,1.176,0.526,1.176,1.176v22.931  c0,0.42-0.225,0.811-0.59,1.02L73.21,75.937l8.198,4.596c0.372,0.209,0.602,0.602,0.602,1.026v11.652  c0,0.425-0.229,0.818-0.602,1.027l-10.008,5.612C71.224,99.95,71.024,100,70.827,100z M32.006,66.497v7.186l6.178-3.612  L32.006,66.497z">
    </path>
    <path xmlns="http://www.w3.org/2000/svg"
      d="M20.848,94.387c-0.399,0-0.792-0.204-1.01-0.576c-0.333-0.558-0.147-1.279,0.411-1.609l29.469-17.483  c0.556-0.331,1.281-0.151,1.609,0.411c0.333,0.558,0.147,1.279-0.411,1.609L21.447,94.222  C21.259,94.334,21.052,94.387,20.848,94.387z">
    </path>
    <path xmlns="http://www.w3.org/2000/svg"
      d="M30.831,65.635c-0.406,0-0.804-0.211-1.02-0.59c-0.324-0.565-0.128-1.284,0.434-1.605l30.013-17.21  c0.562-0.321,1.283-0.133,1.605,0.434c0.323,0.565,0.128,1.284-0.435,1.605l-30.013,17.21C31.23,65.584,31.031,65.635,30.831,65.635  z">
    </path>
    <path xmlns="http://www.w3.org/2000/svg"
      d="M60.843,60.078c-0.206,0-0.415-0.055-0.602-0.165l-9.974-5.935c-0.558-0.333-0.741-1.054-0.408-1.611  c0.333-0.561,1.056-0.742,1.612-0.409l9.342,5.558l8.951-5.875c0.542-0.355,1.271-0.209,1.629,0.338  c0.355,0.542,0.204,1.272-0.338,1.628l-9.567,6.279C61.293,60.013,61.069,60.078,60.843,60.078z">
    </path>
    <path xmlns="http://www.w3.org/2000/svg"
      d="M60.843,71.354c-0.209,0-0.418-0.056-0.604-0.168l-19.568-11.71c-0.558-0.333-0.74-1.054-0.404-1.612  c0.333-0.558,1.056-0.741,1.612-0.404l18.972,11.352l19.361-11.358c0.558-0.321,1.279-0.142,1.609,0.421  c0.329,0.56,0.141,1.281-0.42,1.609l-19.963,11.71C61.254,71.301,61.05,71.354,60.843,71.354z">
    </path>
    <path xmlns="http://www.w3.org/2000/svg"
      d="M61.042,94.387c-0.2,0-0.402-0.05-0.581-0.153c-0.365-0.207-0.591-0.593-0.595-1.013l-0.198-23.034  c-0.004-0.647,0.518-1.181,1.167-1.185c0.002,0,0.007,0,0.009,0c0.646,0,1.172,0.519,1.176,1.166l0.18,21.004l7.452-4.352V75.949  c0-0.649,0.525-1.176,1.176-1.176c0.649,0,1.176,0.526,1.176,1.176v11.547c0,0.418-0.223,0.804-0.583,1.016l-9.786,5.716  C61.453,94.334,61.246,94.387,61.042,94.387z">
    </path>
    <path xmlns="http://www.w3.org/2000/svg"
      d="M80.834,94.387c-0.199,0-0.399-0.05-0.583-0.153l-10.008-5.716c-0.563-0.324-0.761-1.041-0.439-1.605  c0.324-0.567,1.048-0.756,1.605-0.438l10.009,5.716c0.562,0.323,0.76,1.04,0.438,1.605C81.638,94.174,81.242,94.387,80.834,94.387z">
    </path>
    <path xmlns="http://www.w3.org/2000/svg"
      d="M80.483,36.681c-0.649,0-1.176-0.526-1.176-1.176v-11.35c0-0.65,0.526-1.176,1.176-1.176c0.65,0,1.177,0.526,1.177,1.176  v11.35C81.66,36.155,81.133,36.681,80.483,36.681z">
    </path>
    <path xmlns="http://www.w3.org/2000/svg"
      d="M70.827,19.66c-0.65,0-1.176-0.526-1.176-1.176V7.676l-7.632-4.453v9.388c0,0.65-0.525,1.176-1.176,1.176  c-0.649,0-1.176-0.526-1.176-1.176V1.175c0-0.42,0.226-0.811,0.591-1.02c0.365-0.207,0.812-0.209,1.178,0.004l9.983,5.826  c0.36,0.211,0.583,0.597,0.583,1.015v11.482C72.002,19.133,71.476,19.66,70.827,19.66z">
    </path>
    <path xmlns="http://www.w3.org/2000/svg"
      d="M50.7,19.687c-0.649,0-1.176-0.526-1.176-1.176V6.788c0-0.427,0.232-0.822,0.606-1.029l10.144-5.613  c0.572-0.31,1.286-0.11,1.599,0.459c0.314,0.569,0.107,1.284-0.459,1.598l-9.538,5.277v11.03  C51.875,19.161,51.35,19.687,50.7,19.687z">
    </path>
    <path xmlns="http://www.w3.org/2000/svg"
      d="M40.524,37.129c-0.65,0-1.176-0.526-1.176-1.176V24.266c0-0.65,0.526-1.176,1.176-1.176s1.176,0.526,1.176,1.176v11.687  C41.7,36.603,41.174,37.129,40.524,37.129z">
    </path>
  </g>
</svg>